<?xml version="1.0" standalone="no"?>
<!DOCTYPE svg PUBLIC "-//W3C//DTD SVG 20010904//EN" "http://www.w3.org/TR/2001/REC-SVG-20010904/DTD/svg10.dtd">
<!-- Created using Krita: https://krita.org -->
<svg xmlns="http://www.w3.org/2000/svg" 
    xmlns:xlink="http://www.w3.org/1999/xlink"
    xmlns:krita="http://krita.org/namespaces/svg/krita"
    xmlns:sodipodi="http://sodipodi.sourceforge.net/DTD/sodipodi-0.dtd"
    width="481.68pt"
    height="276.48pt"
    viewBox="0 0 481.68 276.48">
<defs/>
<g id="group0" transform="translate(0.994669798539746, -1.11496439665706)" fill="none">
  <path id="shape0" fill="#916e4e" fill-rule="evenodd" stroke="#000000" stroke-width="2.92999999999977" stroke-linecap="square" stroke-linejoin="bevel" d="M298.704 0C240.161 22.1989 182.145 41.3972 116.769 102.413C75.4336 129.328 38.9665 155.625 0 192.024C1.402 213.014 7.5362 233.057 16.8703 252.46C34.6601 257.188 52.5254 261.722 73.7664 257.521C114.695 251.978 150.813 241.273 180.281 223.433C190.258 215.524 223.84 245.774 257.024 275.383C267.508 249.92 255.238 230.307 241.477 211.078C321.044 188.734 380.077 163.204 408.527 132.928C440.572 143.559 463.257 145.766 477.662 140.52C460.103 118.807 443.439 95.3474 423.412 78.447C422.677 60.996 409.782 43.6226 400.257 34.3857C377.283 24.1074 343.432 12.6455 298.704 0Z" sodipodi:nodetypes="ccccccccccccc"/>
  <path id="shape1" transform="translate(135.262470609592, 127.341408063198)" fill="none" stroke="#000000" stroke-width="2.92999999999977" stroke-linecap="square" stroke-linejoin="miter" stroke-miterlimit="2" d="M0 4.21858C32.0785 -13.4829 34.9314 29.5844 23.3166 40.1328" sodipodi:nodetypes="cc"/>
  <path id="shape2" transform="translate(65.2036274313839, 101.271022874354)" fill="#574330" fill-rule="evenodd" stroke="#000000" stroke-width="2.92999999999977" stroke-linecap="square" stroke-linejoin="miter" stroke-miterlimit="2" d="M6.50442 28.2504C-9.54629 4.97766 6.80175 -14.5262 26.3568 14.7601" sodipodi:nodetypes="cc"/>
  <path id="shape3" transform="translate(5.35561909069122, 197.632621879327)" fill="none" stroke="#000000" stroke-width="2.92999999999977" stroke-linecap="square" stroke-linejoin="miter" stroke-miterlimit="2" d="M0 0L3.99713 10.1927" sodipodi:nodetypes="cc"/>
  <path id="shape4" transform="translate(23.342721608693, 198.112277946474)" fill="none" stroke="#000000" stroke-width="2.92999999999977" stroke-linecap="square" stroke-linejoin="miter" stroke-miterlimit="2" d="M6.79513 0L0 10.8522" sodipodi:nodetypes="cc"/>
  <path id="shape5" transform="translate(15.2152160264848, 213.341358078382)" fill="none" stroke="#000000" stroke-width="2.92999999999977" stroke-linecap="square" stroke-linejoin="miter" stroke-miterlimit="2" d="M0 0L4.9298 32.1969" sodipodi:nodetypes="cc"/>
  <path id="shape6" transform="translate(16.8703317117622, 245.538271585651)" fill="none" stroke="#000000" stroke-width="2.92999999999977" stroke-linecap="square" stroke-linejoin="miter" stroke-miterlimit="2" d="M3.27468 0L0 6.92128" sodipodi:nodetypes="cc"/>
  <path id="shape7" transform="translate(20.1450144944449, 245.538271585697)" fill="none" stroke="#000000" stroke-width="2.92999999999977" stroke-linecap="square" stroke-linejoin="miter" stroke-miterlimit="2" d="M0 0L18.3868 6.35544" sodipodi:nodetypes="cc"/>
  <path id="shape8" transform="translate(87.2968638949213, 183.542724906892)" fill="none" stroke="#4c3227" stroke-width="2.92999999999977" stroke-linecap="square" stroke-linejoin="bevel" d="M0 6.77514L21.7178 0L12.2579 9.47321" sodipodi:nodetypes="ccc"/>
  <path id="shape9" transform="translate(220.328146387702, 223.860166428923)" fill="#54473b" fill-rule="evenodd" stroke-opacity="0" stroke="#000000" stroke-width="0" stroke-linecap="square" stroke-linejoin="bevel" d="M36.3592 49.5375C43.3732 29.2694 37.2162 15.3483 27.9768 0.0138055C15.555 -0.369709 4.87856 7.28877 0.125662 16.5623C-1.38312 16.2191 10.6947 27.2108 36.3592 49.5375Z" sodipodi:nodetypes="cccc"/>
  <path id="shape10" transform="translate(135.462003247889, 129.881758713551)" fill="#54473b" fill-rule="evenodd" stroke="#54473b" stroke-width="2.92999999999977" stroke-linecap="square" stroke-linejoin="miter" stroke-miterlimit="2" d="M0 4.14073C21.4922 -10.0957 36.6077 15.3067 20.4602 35.9803" sodipodi:nodetypes="cc"/>
  <path id="shape11" transform="translate(425.630000898013, 101.731535970863)" fill="#54473b" fill-rule="evenodd" stroke-opacity="0" stroke="#000000" stroke-width="0" stroke-linecap="square" stroke-linejoin="bevel" d="M49.9908 37.1529C38.2134 24.0925 30.2608 11.9106 19.2554 0C6.97504 3.65806 -2.08521 19.7049 0.417522 34.3137C21.5986 41.7279 38.123 42.6743 49.9908 37.1529Z" sodipodi:nodetypes="cccc"/>
 </g>
</svg>
