<?xml version="1.0" standalone="no"?>
<!DOCTYPE svg PUBLIC "-//W3C//DTD SVG 20010904//EN" "http://www.w3.org/TR/2001/REC-SVG-20010904/DTD/svg10.dtd">
<!-- Created using Krita: https://krita.org -->
<svg xmlns="http://www.w3.org/2000/svg" 
    xmlns:xlink="http://www.w3.org/1999/xlink"
    xmlns:krita="http://krita.org/namespaces/svg/krita"
    xmlns:sodipodi="http://sodipodi.sourceforge.net/DTD/sodipodi-0.dtd"
    width="481.68pt"
    height="276.48pt"
    viewBox="0 0 481.68 276.48">
<defs/>
<g id="group0" transform="translate(0.994682991245715, -1.11496435235236)" fill="none">
  <path id="shape0" transform="matrix(0.999999960263572 0 0 0.999999960263572 0 0)" fill="#916e4e" fill-rule="evenodd" stroke="#000000" stroke-width="2.92999999999977" stroke-linecap="square" stroke-linejoin="bevel" d="M298.704 0C240.161 22.1989 182.145 41.3972 116.769 102.413C75.4336 129.328 38.9665 155.625 0 192.024C1.402 213.014 7.5362 233.057 16.8703 252.46C34.6601 257.188 52.5254 261.722 73.7664 257.521C114.695 251.978 150.813 241.273 180.281 223.433C190.258 215.524 223.84 245.774 257.024 275.383C267.508 249.92 255.238 230.307 241.477 211.078C321.044 188.734 380.077 163.204 408.527 132.928C440.572 143.559 463.257 145.766 477.662 140.52C460.103 118.807 443.439 95.3474 423.412 78.447C422.677 60.996 409.782 43.6226 400.257 34.3857C377.283 24.1074 343.432 12.6455 298.704 0Z" sodipodi:nodetypes="ccccccccccccc"/>
  <path id="shape1" transform="matrix(0.999999960263572 0 0 0.999999960263572 135.262465234745 127.341398439963)" fill="none" stroke="#000000" stroke-width="2.92999999999977" stroke-linecap="square" stroke-linejoin="miter" stroke-miterlimit="2" d="M0 4.21858C32.0785 -13.4829 34.9314 29.5844 23.3166 40.1328" sodipodi:nodetypes="cc"/>
  <path id="shape2" transform="matrix(0.999999960263572 0 0 0.999999960263572 65.20362556139 101.271014797504)" fill="#574330" fill-rule="evenodd" stroke="#000000" stroke-width="2.92999999999977" stroke-linecap="square" stroke-linejoin="miter" stroke-miterlimit="2" d="M6.50442 28.2504C-9.54629 4.97766 6.80175 -14.5262 26.3568 14.7601" sodipodi:nodetypes="cc"/>
  <path id="shape3" transform="matrix(0.999999960263572 0 0 0.999999960263572 5.35561887787805 197.632614026113)" fill="none" stroke="#000000" stroke-width="2.92999999999977" stroke-linecap="square" stroke-linejoin="miter" stroke-miterlimit="2" d="M0 0L3.99713 10.1927" sodipodi:nodetypes="cc"/>
  <path id="shape4" transform="matrix(0.999999960263572 0 0 0.999999960263572 23.3427206811366 198.1122700742)" fill="none" stroke="#000000" stroke-width="2.92999999999977" stroke-linecap="square" stroke-linejoin="miter" stroke-miterlimit="2" d="M6.79513 0L0 10.8522" sodipodi:nodetypes="cc"/>
  <path id="shape5" transform="matrix(0.999999960263572 0 0 0.999999960263572 15.2152154218865 213.341349600958)" fill="none" stroke="#000000" stroke-width="2.92999999999977" stroke-linecap="square" stroke-linejoin="miter" stroke-miterlimit="2" d="M0 0L4.9298 32.1969" sodipodi:nodetypes="cc"/>
  <path id="shape6" transform="matrix(0.999999960263572 0 0 0.999999960263572 16.8703310413955 245.538261828837)" fill="none" stroke="#000000" stroke-width="2.92999999999977" stroke-linecap="square" stroke-linejoin="miter" stroke-miterlimit="2" d="M3.27468 0L0 6.92128" sodipodi:nodetypes="cc"/>
  <path id="shape7" transform="matrix(0.999999960263572 0 0 0.999999960263572 20.145013693954 245.538261828883)" fill="none" stroke="#000000" stroke-width="2.92999999999977" stroke-linecap="square" stroke-linejoin="miter" stroke-miterlimit="2" d="M0 0L18.3868 6.35544" sodipodi:nodetypes="cc"/>
  <path id="shape8" transform="matrix(0.999999960263572 0 0 0.999999960263572 87.2968604260557 183.54271761356)" fill="none" stroke="#4c3227" stroke-width="2.92999999999977" stroke-linecap="square" stroke-linejoin="bevel" d="M0 6.77514L21.7178 0L12.2579 9.47321" sodipodi:nodetypes="ccc"/>
  <path id="shape9" transform="matrix(0.999999960263572 0 0 0.999999960263572 220.328137810713 223.860157571144)" fill="#54473b" fill-rule="evenodd" stroke-opacity="0" stroke="#000000" stroke-width="0" stroke-linecap="square" stroke-linejoin="bevel" d="M36.3592 49.5375C43.3732 29.2694 37.2162 15.3483 27.9768 0.0138055C15.555 -0.369709 4.87856 7.28877 0.125662 16.5623C-1.38312 16.2191 10.6947 27.2108 36.3592 49.5375Z" sodipodi:nodetypes="cccc"/>
  <path id="shape10" transform="matrix(0.999999960263572 0 0 0.999999960263572 135.461997865113 129.881753141499)" fill="#54473b" fill-rule="evenodd" stroke="#54473b" stroke-width="2.92999999999977" stroke-linecap="square" stroke-linejoin="miter" stroke-miterlimit="2" d="M0 4.14073C21.4922 -10.0957 36.6077 15.3067 20.4602 35.9803" sodipodi:nodetypes="cc"/>
  <path id="shape11" transform="matrix(0.999999960263572 0 0 0.999999960263572 425.629983969503 101.731531928415)" fill="#54473b" fill-rule="evenodd" stroke-opacity="0" stroke="#000000" stroke-width="0" stroke-linecap="square" stroke-linejoin="bevel" d="M49.9908 37.1529C38.2134 24.0925 30.2608 11.9106 19.2554 0C6.97504 3.65806 -2.08521 19.7049 0.417522 34.3137C21.5986 41.7279 38.123 42.6743 49.9908 37.1529Z" sodipodi:nodetypes="cccc"/>
 </g><path id="shape0" transform="translate(0.994682991245716, 0)" fill="none" stroke-opacity="0.752941176470588" stroke="#ffffff" stroke-width="21.6" stroke-linecap="square" stroke-linejoin="bevel" d="M0 190.909C0.865837 209.618 6.44383 230.45 16.8703 251.345C58.2151 264.608 108.05 258.456 184.576 221.392C204.441 224.559 232.403 255.051 257.024 274.268C267.055 246.199 254.441 228.005 241.477 209.963C323.757 187.433 379.844 161.437 408.527 131.813C431.24 138.283 453.784 146.772 477.662 139.405C460.139 115.647 442.375 93.2074 423.412 77.332C421.515 54.6404 410.621 44.3205 400.257 33.2707C366.106 17.9602 332.755 7.68952 299.814 0C210.758 26.2202 157.857 62.1697 116.769 101.298L93.3973 117.094C69.5865 82.4615 55.8169 107.744 72.1156 131.95C55.8273 141.942 31.7888 161.595 0 190.909Z" sodipodi:nodetypes="cccccccccccccc"/>
</svg>
