<?xml version="1.0" standalone="no"?>
<!DOCTYPE svg PUBLIC "-//W3C//DTD SVG 20010904//EN" "http://www.w3.org/TR/2001/REC-SVG-20010904/DTD/svg10.dtd">
<!-- Created using Krita: https://krita.org -->
<svg xmlns="http://www.w3.org/2000/svg" 
    xmlns:xlink="http://www.w3.org/1999/xlink"
    xmlns:krita="http://krita.org/namespaces/svg/krita"
    xmlns:sodipodi="http://sodipodi.sourceforge.net/DTD/sodipodi-0.dtd"
    width="1164.24pt"
    height="656.64pt"
    viewBox="0 0 1164.24 656.64">
<defs/>
<g id="group0" transform="matrix(0.999999977691829 0 0 0.999999977691829 0.557888823078236 0.696633168132971)" fill="none">
  <path id="shape0" transform="translate(0, 3.53029489086332e-07)" fill="#b9814e" fill-rule="evenodd" stroke="#000000" stroke-width="2.92999999999977" stroke-linecap="square" stroke-linejoin="bevel" d="M380.025 496.876C353.424 525.157 320.407 547.925 285.657 569.205C245.195 590.191 210.672 610.509 185.13 629.816C190.918 656.268 225.609 655.188 238.294 651.504C286.742 620.784 352.209 604.98 390.386 579.916C451.752 547.487 499.103 513.402 553.078 490.323C720.333 460.336 721.645 447.825 755.814 431.854C798.711 408.995 857.971 367.112 918.472 323.787C1010.02 293.453 1091.46 259.293 1161.25 214.788C1161.58 200.387 1158.51 187.748 1144.01 181.022C1097.38 198.306 1052.27 185.562 1006.4 187.822L954.035 122.675C969.345 110.732 988.514 93.3109 990.835 80.7185L964.793 65.2193C951.125 71.5377 940.891 77.7372 918.192 84.3682C803.085 0.993228 751.29 -1.02565 702.015 0.193552C632.764 31.0192 555.272 73.7273 453.356 151.657C396.988 171.187 337.315 184.889 289.263 219.073C204.272 279.955 101.721 370.004 59.3647 420.563C59.6201 437.325 58.687 452.653 68.8854 481.425C50.2631 493.178 27.8488 510.149 0 534.602C9.68104 548.562 18.6059 557.793 33.4393 551.618C62.4026 543.943 68.9342 536.43 85.9668 529.183C92.3308 546.696 98.7919 564.09 115.369 569.128C133.201 576.324 148.359 575.396 163.253 573.665C264.567 548.763 336.825 523.167 380.025 496.876Z" sodipodi:nodetypes="cccccccccccccccccccccccccc"/>
  <path id="shape1" transform="translate(198.746766993858, 248.035775682275)" fill="#916e4e" fill-rule="evenodd" stroke="#000000" stroke-width="2.92999999999977" stroke-linecap="square" stroke-linejoin="miter" stroke-miterlimit="2" d="M3.03879 39.2009C-9.31792 5.92938 18.3114 -9.55462 44.482 6.18626" sodipodi:nodetypes="cc"/>
  <path id="shape2" transform="translate(345.372470242305, 305.084897385584)" fill="none" stroke="#000000" stroke-width="2.92999999999977" stroke-linecap="square" stroke-linejoin="miter" stroke-miterlimit="2" d="M0 4.85885C43.7188 -15.4312 57.2886 33.084 23.5022 53.7297" sodipodi:nodetypes="cc"/>
  <path id="shape3" transform="translate(248.79117082749, 399.883806249684)" fill="none" stroke="#000000" stroke-width="2.92999999999977" stroke-linecap="square" stroke-linejoin="miter" stroke-miterlimit="2" d="M0 9.89852C10.591 10.6323 24.8481 9.61953 37.2722 0" sodipodi:nodetypes="cc"/>
  <path id="shape4" transform="translate(388.359192995784, 441.818755569628)" fill="none" stroke="#000000" stroke-width="2.92999999999977" stroke-linecap="square" stroke-linejoin="miter" stroke-miterlimit="2" d="M46.2232 0C35.5518 21.2014 18.3857 35.1937 0 47.8322" sodipodi:nodetypes="cc"/>
  <path id="shape5" transform="translate(60.8282176570366, 356.291583487317)" fill="#916e4e" fill-rule="evenodd" stroke-opacity="0" stroke="#000000" stroke-width="0" stroke-linecap="square" stroke-linejoin="bevel" d="M97.8777 89.944C101.203 44.3223 108.235 0 79.3846 0C55.2339 3.91604 12.315 48.2912 1.24828 63.7761C0.845848 70.4641 -0.71035 70.9191 0.382204 89.5542C4.46514 129.942 11.598 126.579 28.2204 119.898C56.1018 124.185 82.5358 133.561 97.8777 89.944Z" sodipodi:nodetypes="cccccc"/>
  <path id="shape6" transform="translate(70.0739759077414, 434.973042875946)" fill="none" stroke="#000000" stroke-width="2.92999999999977" stroke-linecap="square" stroke-linejoin="miter" stroke-miterlimit="2" d="M0.378901 0C-0.596056 7.62822 0.497748 14.5582 1.54911 21.5026" sodipodi:nodetypes="cc"/>
  <path id="shape7" transform="translate(106.271004024074, 434.358684044461)" fill="none" stroke="#000000" stroke-width="2.92999999999977" stroke-linecap="square" stroke-linejoin="miter" stroke-miterlimit="2" d="M1.23844 0C-0.542881 6.98029 0.0605742 15.0337 0.263265 22.9068" sodipodi:nodetypes="cc"/>
  <path id="shape8" transform="translate(922.18568322184, 90.0164503887806)" fill="none" stroke="#000000" stroke-width="2.92999999999977" stroke-linecap="square" stroke-linejoin="miter" stroke-miterlimit="2" d="M0 0C12.1574 7.43855 20.6697 17.3376 27.9658 28.0575" sodipodi:nodetypes="cc"/>
  <path id="shape9" transform="translate(90.9577365479113, 538.800649006942)" fill="none" stroke="#000000" stroke-width="2.92999999999977" stroke-linecap="square" stroke-linejoin="miter" stroke-miterlimit="2" d="M0 3.50719C25.9918 16.3105 51.5462 5.82439 68.5391 0" sodipodi:nodetypes="cc"/>
  <path id="shape10" transform="translate(89.1239137329714, 479.59109486965)" fill="none" stroke="#000000" stroke-width="2.92999999999977" stroke-linecap="square" stroke-linejoin="miter" stroke-miterlimit="2" d="M15.8167 67.3586C8.47463 48.4984 3.0641 26.2856 0 0" sodipodi:nodetypes="cc"/>
  <path id="shape11" transform="translate(71.6785803586276, 487.347968068535)" fill="none" stroke="#000000" stroke-width="2.92999999999977" stroke-linecap="square" stroke-linejoin="miter" stroke-miterlimit="2" d="M0 0C2.14552 13.0242 8.65399 26.1976 13.9872 37.3092" sodipodi:nodetypes="cc"/>
  <path id="shape12" transform="translate(346.134262492725, 307.523321852774)" fill="#916e4e" fill-rule="evenodd" stroke="#916e4e" stroke-width="2.92999999999977" stroke-linecap="square" stroke-linejoin="miter" stroke-miterlimit="2" d="M0 6.00863C35.3398 -15.7179 57.3737 26.7821 21.0333 49.2135" sodipodi:nodetypes="cc"/>
  <ellipse id="shape13" transform="matrix(0.955827526860272 -0.293928118586602 0.293928118586602 0.955827526860272 235.960684325698 389.159495080656)" rx="26.9999999999978" ry="12.499999999999" cx="26.9999999999978" cy="12.499999999999" fill="#ca915d" fill-rule="evenodd" stroke-opacity="0" stroke="#000000" stroke-width="0" stroke-linecap="square" stroke-linejoin="bevel"/>
  <path id="shape14" transform="translate(1.74110689428104, 483.896522870873)" fill="#916e4e" fill-rule="evenodd" stroke-opacity="0" stroke="#000000" stroke-width="0" stroke-linecap="square" stroke-linejoin="bevel" d="M66.6365 0C71.2073 15.6001 75.4446 30.3783 84.0869 42.989C10.4805 84.1057 10.6729 66.454 0 50.7322C30.5467 24.3077 52.7588 7.39701 66.6365 0Z" sodipodi:nodetypes="cccc"/>
  <path id="shape15" transform="translate(185.473143942674, 553.769007848812)" fill="#916e4e" fill-rule="evenodd" stroke-opacity="0" stroke="#000000" stroke-width="0" stroke-linecap="square" stroke-linejoin="bevel" d="M0 78.7786C12.2381 98.5777 26.7849 100.383 52.8206 97.7346C91.9003 70.4769 130.636 60.6151 170.06 44.0655C162.327 21.2392 149.04 5.79124 128.485 0C57.6161 39.1851 14.7876 65.4446 0 78.7786Z" sodipodi:nodetypes="ccccc"/>
  <path id="shape16" transform="translate(927.960082811159, 67.8619587976846)" fill="#916e4e" fill-rule="evenodd" stroke-opacity="0" stroke="#000000" stroke-width="0" stroke-linecap="square" stroke-linejoin="bevel" d="M33.8745 0.580009C37.3977 -2.68405 53.0632 8.70775 62.8745 12.8566C52.4997 30.6524 44.2443 37.1071 35.4931 46.2506C31.9872 31.9797 26.571 20.5372 0 14.9471C3.03831 13.9702 14.3298 9.18118 33.8745 0.580009Z" sodipodi:nodetypes="ccccc"/>
  <path id="shape17" transform="translate(1101.51921451879, 181.022434837072)" fill="#916e4e" fill-rule="evenodd" stroke-opacity="0" stroke="#000000" stroke-width="0" stroke-linecap="square" stroke-linejoin="bevel" d="M42.4874 0C59.4808 10.918 56.9513 22.4216 59.7321 33.766C46.8687 41.4079 32.1062 49.6781 18.3158 55.547C25.1646 40.6616 17.9855 19.3487 0 9.95785C14.6907 10.0061 28.8532 6.68682 42.4874 0Z" sodipodi:nodetypes="ccccc"/>
 </g><path id="shape0" transform="translate(2.29899567851837, 0.215609251812376)" fill="none" stroke-opacity="0.788235294117647" stroke="#ffffff" stroke-width="21.6" stroke-linecap="square" stroke-linejoin="bevel" d="M183.389 630.297C187.758 655.514 211.297 655.941 236.553 651.985C270.694 634.499 313.076 616.339 353.792 598.316C421.006 566.986 483.301 523.433 551.337 490.804C729.692 481.666 856.357 365.11 916.731 324.268C991.751 295.637 1055.74 281.391 1159.51 215.269C1162.8 202.807 1160.26 188.709 1142.27 181.503C1096.24 196.052 1050.53 186.037 1004.66 188.303C988.377 164.842 969.145 143.954 952.294 123.156C965.017 109.824 982.526 103.345 989.094 81.1995C981.411 75.2097 974.358 68.7006 963.052 65.7003C948.955 69.0667 932.282 77.8408 916.451 84.8492C822.129 13.3241 755.644 -3.8509 700.274 0.674576C580.956 50.5552 522.563 101.451 451.615 152.138C369.11 175.269 322.355 197.553 287.522 219.554C223.725 268.353 277.701 222.511 241.488 254.703C221.505 238.66 188.375 244.874 200.044 287.718C149.972 332.015 72.0573 404.956 57.6236 421.044C53.8739 444.793 59.6692 463.769 67.1443 481.906C41.9589 498.379 18.2958 515.537 0 535.11C6.19177 548.209 14.2681 558.105 31.6982 552.099C49.6628 547.695 66.8548 538.076 84.2257 529.664C90.1136 569.934 119.085 580.652 161.512 574.146C232.027 553.302 298.457 543.605 378.284 497.357C361.308 514.808 336.537 534.596 312.217 554.25C283.826 566.09 240.883 591.439 183.389 630.297Z" sodipodi:nodetypes="cccccccccccccccccccccccccc"/>
</svg>
