<?xml version="1.0" standalone="no"?>
<!DOCTYPE svg PUBLIC "-//W3C//DTD SVG 20010904//EN" "http://www.w3.org/TR/2001/REC-SVG-20010904/DTD/svg10.dtd">
<!-- Created using Krita: https://krita.org -->
<svg xmlns="http://www.w3.org/2000/svg" 
    xmlns:xlink="http://www.w3.org/1999/xlink"
    xmlns:krita="http://krita.org/namespaces/svg/krita"
    xmlns:sodipodi="http://sodipodi.sourceforge.net/DTD/sodipodi-0.dtd"
    width="373.68pt"
    height="300.96pt"
    viewBox="0 0 373.68 300.96">
<defs/>
<g id="group0" transform="translate(1.49112676535646, 0)" fill="none">
  <path id="shape0" transform="matrix(1.00000001960024 0 0 1.00000001960024 2.22044604925031e-16 1.19278115094953)" fill="#ba8552" fill-rule="evenodd" stroke="#73460a" stroke-width="1.99999999999984" stroke-linecap="square" stroke-linejoin="bevel" d="M355.201 0C364.621 22.5321 335.096 68.5293 318.539 105.141C326.764 123.453 331.48 147.731 334.929 168.652C338.993 192.085 373.756 217.917 370.535 241.409C341.786 243.583 322.086 217.277 297.298 215.146L209.871 235.229C206.559 259.3 203.504 283.603 189.044 297.641C168.036 278.724 176.855 239.525 156.545 228.638C119.164 258.512 93.7413 260.978 67.058 266.332C45.1354 261.055 24.3331 253.209 9.61241 231.419C13.0377 209.24 14.5309 186.67 24.4888 165.814C8.50429 152.385 3.30001 135.415 0 117.821L50.8084 126.678C93.1103 89.5937 105.259 91.2498 125.19 82.907C188.548 69.0956 241.683 70.5336 286.312 84.6579C319.772 36.0431 342.735 7.82383 355.201 0Z" sodipodi:nodetypes="cccccccccccccccc"/>
  <path id="shape1" transform="matrix(1.00000001960024 0 0 1.00000001960024 108.935585813743 99.1628743211741)" fill="none" stroke="#653903" stroke-width="2.22999999999982" stroke-linecap="square" stroke-linejoin="bevel" d="M0 27.9801C15.1771 18.6684 34.8625 6.04452 50.731 0C49.7869 17.9017 43.0848 42.2322 36.032 61.404" sodipodi:nodetypes="ccc"/>
  <path id="shape2" transform="matrix(1.00000001960024 0 0 1.00000001960024 4.07812240602771 123.778301559638)" fill="#d8a1a1" fill-rule="evenodd" stroke-opacity="0" stroke="#000000" stroke-width="0" stroke-linecap="square" stroke-linejoin="bevel" d="M0 0C4.15046 15.6715 12.3713 28.6717 22.2669 40.0342C24.6937 34.8491 26.869 29.1733 30.0654 25.4889C30.0014 20.6348 19.9796 12.1385 0 0Z" sodipodi:nodetypes="cccc"/>
  <path id="shape3" transform="matrix(1.00000001960024 0 0 1.00000001960024 112.231465219078 107.339814350292)" fill="#d8a1a1" fill-rule="evenodd" stroke-opacity="0" stroke="#000000" stroke-width="0" stroke-linecap="square" stroke-linejoin="bevel" d="M0 23.2725C13.4471 15.5672 30.193 3.91937 41.6606 0C40.8641 14.3012 32.599 33.4921 27.9105 48.669C24.697 39.1587 15.3935 30.6932 0 23.2725Z" sodipodi:nodetypes="cccc"/>
  <path id="shape4" transform="matrix(1.00000001960024 0 0 1.00000001960024 173.410672592594 256.389181936861)" fill="#ffffff" fill-rule="evenodd" stroke-opacity="0" stroke="#000000" stroke-width="0" stroke-linecap="square" stroke-linejoin="bevel" d="M31.8278 3.23548C24.5067 -0.761186 10.0505 -1.79792 0 4.444C3.13134 19.5915 6.5764 31.3638 15.5691 41.1076C23.5391 34.5362 28.9586 21.9122 31.8278 3.23548Z" sodipodi:nodetypes="cccc"/>
  <path id="shape5" transform="matrix(1.00000001960024 0 0 1.00000001960024 325.756549753877 199.444335848938)" fill="#ffffff" fill-rule="evenodd" stroke-opacity="0" stroke="#000000" stroke-width="0" stroke-linecap="square" stroke-linejoin="bevel" d="M42.8592 41.7529C43.6288 33.0121 38.1216 19.1743 23.6465 0.0277559C11.5685 -0.720287 1.43931 13.7953 0 26.2252C16.1761 38.5975 30.4625 43.7734 42.8592 41.7529Z" sodipodi:nodetypes="cccc"/>
  <path id="shape6" transform="matrix(1.00000001960024 0 0 1.00000001960024 9.61240863862243 202.865323935866)" fill="#ffffff" fill-rule="evenodd" stroke-opacity="0" stroke="#000000" stroke-width="0" stroke-linecap="square" stroke-linejoin="bevel" d="M0 30.097C18.5932 21.6238 38.0195 14.3945 53.1824 0C71.7399 19.6404 104.278 24.0822 134.715 34.7357C113.329 50.8018 86.0071 59.721 57.0911 63.9737C32.4946 58.1881 13.4643 46.8959 0 30.097Z" sodipodi:nodetypes="ccccc"/>
  <path id="shape7" transform="matrix(1.00000001960024 0 0 1.00000001960024 24.253875539372 195.886249194505)" fill="none" stroke="#000000" stroke-width="2.22999999999982" stroke-linecap="square" stroke-linejoin="bevel" d="M0 0L15.4795 9.77547L0.780477 17.5022" sodipodi:nodetypes="ccc"/>
  <path id="shape8" transform="matrix(1.00000001960024 0 0 1.00000001960024 95.4475589549821 190.910710918012)" fill="none" stroke="#000000" stroke-width="2.22999999999982" stroke-linecap="square" stroke-linejoin="bevel" d="M21.2029 0L0 12.2925L18.081 20.4875" sodipodi:nodetypes="ccc"/>
  <path id="shape9" transform="matrix(1.00000001960024 0 0 1.00000001960024 49.359205927906 214.24520564994)" fill="#d8a1a1" fill-rule="evenodd" stroke-opacity="0" stroke="#000000" stroke-width="0" stroke-linecap="square" stroke-linejoin="bevel" d="M0 2.34037C4.19855 6.5603 7.97768 11.4565 10.5364 18.3206C13.1103 12.4503 16.1731 6.29046 22.779 2.47645C14.0459 -0.779482 6.45293 -0.824843 0 2.34037Z" sodipodi:nodetypes="cccc"/>
  <path id="shape10" transform="matrix(1.00000001960024 0 0 1.00000001960024 50.5299208165353 235.668230330384)" fill="none" stroke="#000000" stroke-width="2.22999999999982" stroke-linecap="square" stroke-linejoin="bevel" d="M0 16.39L8.97548 0L19.7721 15.9803" sodipodi:nodetypes="ccc"/>
  <path id="shape11" transform="matrix(1.00000001960024 0 0 1.00000001960024 320.746216673688 0.860318162846108)" fill="#ffffff" fill-rule="evenodd" stroke-opacity="0" stroke="#000000" stroke-width="0" stroke-linecap="square" stroke-linejoin="bevel" d="M0 39.087C7.07174 39.4653 14.3051 40.4726 23.9426 50.8347C32.464 31.5288 38.6116 12.3696 34.7843 0C24.8479 8.83367 13.2531 21.8627 0 39.087Z" sodipodi:nodetypes="cccc"/>
  <path id="shape0" transform="translate(116.46283520857, 73.6479495763844)" fill="#ef6846" fill-rule="evenodd" stroke="#a42a1a" stroke-width="1.44" stroke-linecap="square" stroke-linejoin="bevel" d="M97.8351 161.507C163.996 68.872 60.4609 1.52835 0 13.3005C23.9484 4.09142 60.4571 -2.99985 100.201 1.27644C170.485 3.10679 205.449 92.8289 150.942 148.881C149.609 150.083 131.906 154.292 97.8351 161.507Z" sodipodi:nodetypes="ccccc"/>
  <path id="shape1" transform="translate(201.751594179662, 76.6327370242636)" fill="#ef6846" fill-rule="evenodd" stroke="#aa2314" stroke-width="0.72" stroke-linecap="square" stroke-linejoin="bevel" d="M0 3.49694C3.48626 22.2157 20.2897 39.4324 28.4485 70.9862C39.4312 111.255 29.8199 130.455 12.5463 158.522L65.8794 145.873C78.801 139.14 115.69 104.044 85.6969 46.0734C72.2718 27.7794 62.2627 14.0005 5.09092 0.983025C9.72908 -0.908372 8.03211 -0.070401 0 3.49694Z" sodipodi:nodetypes="ccccccc"/>
  <path id="shape2" transform="translate(176.593293925808, 44.5439660073459)" fill="#d95939" fill-rule="evenodd" stroke="#ae2810" stroke-width="1.44" stroke-linecap="square" stroke-linejoin="bevel" d="M21.7838 38.2822C16.991 38.229 12.0659 37.2829 6.97634 35.2261C1.71738 32.4104 -1.90643 28.4384 1.07562 19.7952C4.35783 12.5052 6.53136 4.40746 15.7717 1.45843C22.597 -1.21857 28.8742 -0.0317481 34.8099 3.56265C40.9392 8.00508 41.4153 13.1541 42.3806 18.2421L35.0326 30.8674C35.2552 29.9322 30.839 32.4038 21.7838 38.2822Z" sodipodi:nodetypes="cccccccc"/>
  <path id="shape3" transform="translate(204.152365867834, 78.5962941241263)" fill="none" stroke="#a51f10" stroke-width="0.72" stroke-linecap="square" stroke-linejoin="miter" stroke-miterlimit="2" d="M0 0C5.28905 12.7322 11.8391 16.5583 23.8217 35.0787" sodipodi:nodetypes="cc"/>
  <path id="shape4" transform="translate(204.152365867834, 78.5962941241263)" fill="none" stroke="#a51f10" stroke-width="0.72" stroke-linecap="square" stroke-linejoin="miter" stroke-miterlimit="2" d="M0 0C7.66489 5.07207 19.737 14.6542 24.2271 21.257" sodipodi:nodetypes="cc"/>
  <path id="shape5" transform="translate(206.727161124059, 77.6157616574128)" fill="none" stroke="#a12416" stroke-width="0.72" stroke-linecap="square" stroke-linejoin="miter" stroke-miterlimit="2" d="M0 0C18.4682 8.09314 33.6073 15.6044 48.8192 31.3151" sodipodi:nodetypes="cc"/>
  <path id="shape6" transform="translate(102.276728291582, 0)" fill="#ef6846" fill-rule="evenodd" stroke="#9c210e" stroke-width="1.44" stroke-linecap="square" stroke-linejoin="bevel" d="M86.8731 46.5283C85.4394 34.7566 90.6101 23.9555 66.7007 5.74761C43.8499 5.3594 16.5876 15.8897 0 0C2.66019 11.4434 9.81743 17.1155 19.7669 19.2043C16.5172 38.3361 33.3747 45.4037 44.3995 55.9708C55.7258 60.273 74.1328 47.6208 78.7636 54.6479C78.4932 54.7391 81.1964 52.0326 86.8731 46.5283Z" sodipodi:nodetypes="ccccccc"/>
  <path id="shape7" transform="translate(198.751408495942, 7.7416247796289)" fill="#ef6846" fill-rule="evenodd" stroke="#951300" stroke-width="1.44" stroke-linecap="square" stroke-linejoin="bevel" d="M0.0284113 56.3944C-0.613722 31.6627 9.62496 13.0216 31.1486 0.697327C43.5681 -2.94537 52.0382 8.5765 60.5456 14.6102C73.4423 20.0669 85.2656 11.9946 97.4438 8.08711C98.37 15.4676 80.8147 37.3488 73.8249 33.1759C74.4042 40.9871 72.9464 47.4233 66.5263 50.51C56.0277 56.7122 41.8154 60.1028 32.061 57.8541C27.4505 57.9517 24.3961 58.75 20.6063 45.8115C16.4381 43.5137 9.5788 47.0414 0.0284113 56.3944Z" sodipodi:nodetypes="ccccccccc"/>
  <path id="shape8" transform="translate(122.043643045183, 18.0060915590352)" fill="none" stroke="#982614" stroke-width="0.72" stroke-linecap="square" stroke-linejoin="bevel" d="M0 1.19823C13.4654 -0.63971 25.2736 -2.10569 40.142 10.732C51.1865 20.6643 46.4728 22.5275 58.4898 28.0204" sodipodi:nodetypes="ccc"/>
  <path id="shape9" transform="translate(206.686585708039, 30.5384563127509)" fill="none" stroke="#aa2d1a" stroke-width="0.72" stroke-linecap="square" stroke-linejoin="bevel" d="M65.8897 10.3791C56.5066 11.8412 51.9552 3.93607 42.068 1.39271C30.4882 -3.79113 12.3117 6.70895 9.83277 13.0248C7.07152 16.3457 3.84207 18.6132 0 19.5022" sodipodi:nodetypes="cccc"/>
 </g>
</svg>
