<?xml version="1.0" standalone="no"?>
<!DOCTYPE svg PUBLIC "-//W3C//DTD SVG 20010904//EN" "http://www.w3.org/TR/2001/REC-SVG-20010904/DTD/svg10.dtd">
<!-- Created using Krita: https://krita.org -->
<svg xmlns="http://www.w3.org/2000/svg" 
    xmlns:xlink="http://www.w3.org/1999/xlink"
    xmlns:krita="http://krita.org/namespaces/svg/krita"
    xmlns:sodipodi="http://sodipodi.sourceforge.net/DTD/sodipodi-0.dtd"
    width="373.68pt"
    height="300.96pt"
    viewBox="0 0 373.68 300.96">
<defs/>
<g id="group0" transform="translate(1.49112676535646, 0.860318162846108)" fill="none">
  <path id="shape0" transform="matrix(1.00000001960024 0 0 1.00000001960024 2.22044604925031e-16 0.332462988103426)" fill="#ba8552" fill-rule="evenodd" stroke="#73460a" stroke-width="1.99999999999984" stroke-linecap="square" stroke-linejoin="bevel" d="M355.201 0C364.621 22.5321 335.096 68.5293 318.539 105.141C326.764 123.453 331.48 147.731 334.929 168.652C338.993 192.085 373.756 217.917 370.535 241.409C341.786 243.583 322.086 217.277 297.298 215.146L209.871 235.229C206.559 259.3 203.504 283.603 189.044 297.641C168.036 278.724 176.855 239.525 156.545 228.638C119.164 258.512 93.7413 260.978 67.058 266.332C45.1354 261.055 24.3331 253.209 9.61241 231.419C13.0377 209.24 14.5309 186.67 24.4888 165.814C8.50429 152.385 3.30001 135.415 0 117.821L50.8084 126.678C93.1103 89.5937 105.259 91.2498 125.19 82.907C188.548 69.0956 241.683 70.5336 286.312 84.6579C319.772 36.0431 342.735 7.82383 355.201 0Z" sodipodi:nodetypes="cccccccccccccccc"/>
  <path id="shape1" transform="matrix(1.00000001960024 0 0 1.00000001960024 108.935585813743 98.302556158328)" fill="none" stroke="#653903" stroke-width="2.22999999999982" stroke-linecap="square" stroke-linejoin="bevel" d="M0 27.9801C15.1771 18.6684 34.8625 6.04452 50.731 0C49.7869 17.9017 43.0848 42.2322 36.032 61.404" sodipodi:nodetypes="ccc"/>
  <path id="shape2" transform="matrix(1.00000001960024 0 0 1.00000001960024 4.07812240602771 122.917983396792)" fill="#d8a1a1" fill-rule="evenodd" stroke-opacity="0" stroke="#000000" stroke-width="0" stroke-linecap="square" stroke-linejoin="bevel" d="M0 0C4.15046 15.6715 12.3713 28.6717 22.2669 40.0342C24.6937 34.8491 26.869 29.1733 30.0654 25.4889C30.0014 20.6348 19.9796 12.1385 0 0Z" sodipodi:nodetypes="cccc"/>
  <path id="shape3" transform="matrix(1.00000001960024 0 0 1.00000001960024 112.231465219078 106.479496187446)" fill="#d8a1a1" fill-rule="evenodd" stroke-opacity="0" stroke="#000000" stroke-width="0" stroke-linecap="square" stroke-linejoin="bevel" d="M0 23.2725C13.4471 15.5672 30.193 3.91937 41.6606 0C40.8641 14.3012 32.599 33.4921 27.9105 48.669C24.697 39.1587 15.3935 30.6932 0 23.2725Z" sodipodi:nodetypes="cccc"/>
  <path id="shape4" transform="matrix(1.00000001960024 0 0 1.00000001960024 173.410672592594 255.528863774015)" fill="#ffffff" fill-rule="evenodd" stroke-opacity="0" stroke="#000000" stroke-width="0" stroke-linecap="square" stroke-linejoin="bevel" d="M31.8278 3.23548C24.5067 -0.761186 10.0505 -1.79792 0 4.444C3.13134 19.5915 6.5764 31.3638 15.5691 41.1076C23.5391 34.5362 28.9586 21.9122 31.8278 3.23548Z" sodipodi:nodetypes="cccc"/>
  <path id="shape5" transform="matrix(1.00000001960024 0 0 1.00000001960024 325.756549753877 198.584017686092)" fill="#ffffff" fill-rule="evenodd" stroke-opacity="0" stroke="#000000" stroke-width="0" stroke-linecap="square" stroke-linejoin="bevel" d="M42.8592 41.7529C43.6288 33.0121 38.1216 19.1743 23.6465 0.0277559C11.5685 -0.720287 1.43931 13.7953 0 26.2252C16.1761 38.5975 30.4625 43.7734 42.8592 41.7529Z" sodipodi:nodetypes="cccc"/>
  <path id="shape6" transform="matrix(1.00000001960024 0 0 1.00000001960024 9.61240863862243 202.00500577302)" fill="#ffffff" fill-rule="evenodd" stroke-opacity="0" stroke="#000000" stroke-width="0" stroke-linecap="square" stroke-linejoin="bevel" d="M0 30.097C18.5932 21.6238 38.0195 14.3945 53.1824 0C71.7399 19.6404 104.278 24.0822 134.715 34.7357C113.329 50.8018 86.0071 59.721 57.0911 63.9737C32.4946 58.1881 13.4643 46.8959 0 30.097Z" sodipodi:nodetypes="ccccc"/>
  <path id="shape7" transform="matrix(1.00000001960024 0 0 1.00000001960024 24.253875539372 195.025931031659)" fill="none" stroke="#000000" stroke-width="2.22999999999982" stroke-linecap="square" stroke-linejoin="bevel" d="M0 0L15.4795 9.77547L0.780477 17.5022" sodipodi:nodetypes="ccc"/>
  <path id="shape8" transform="matrix(1.00000001960024 0 0 1.00000001960024 95.4475589549821 190.050392755166)" fill="none" stroke="#000000" stroke-width="2.22999999999982" stroke-linecap="square" stroke-linejoin="bevel" d="M21.2029 0L0 12.2925L18.081 20.4875" sodipodi:nodetypes="ccc"/>
  <path id="shape9" transform="matrix(1.00000001960024 0 0 1.00000001960024 49.359205927906 213.384887487094)" fill="#d8a1a1" fill-rule="evenodd" stroke-opacity="0" stroke="#000000" stroke-width="0" stroke-linecap="square" stroke-linejoin="bevel" d="M0 2.34037C4.19855 6.5603 7.97768 11.4565 10.5364 18.3206C13.1103 12.4503 16.1731 6.29046 22.779 2.47645C14.0459 -0.779482 6.45293 -0.824843 0 2.34037Z" sodipodi:nodetypes="cccc"/>
  <path id="shape10" transform="matrix(1.00000001960024 0 0 1.00000001960024 50.5299208165353 234.807912167538)" fill="none" stroke="#000000" stroke-width="2.22999999999982" stroke-linecap="square" stroke-linejoin="bevel" d="M0 16.39L8.97548 0L19.7721 15.9803" sodipodi:nodetypes="ccc"/>
  <path id="shape11" transform="matrix(1.00000001960024 0 0 1.00000001960024 320.746216673688 0)" fill="#ffffff" fill-rule="evenodd" stroke-opacity="0" stroke="#000000" stroke-width="0" stroke-linecap="square" stroke-linejoin="bevel" d="M0 39.087C7.07174 39.4653 14.3051 40.4726 23.9426 50.8347C32.464 31.5288 38.6116 12.3696 34.7843 0C24.8479 8.83367 13.2531 21.8627 0 39.087Z" sodipodi:nodetypes="cccc"/>
 </g><path id="shape01" transform="matrix(0.999999980611543 0 0 0.999999980611543 1.84674321818981 0.77266814301017)" fill="none" stroke-opacity="0.807843137254902" stroke="#ffffff" stroke-width="21.6" stroke-linecap="square" stroke-linejoin="bevel" d="M355.201 0C364.621 22.5321 335.096 68.5293 318.539 105.141C326.764 123.453 331.48 147.731 334.929 168.652C338.993 192.085 373.756 217.917 370.535 241.409C341.786 243.583 322.086 217.277 297.298 215.146L209.871 235.229C206.559 259.3 203.504 283.603 189.044 297.641C168.036 278.724 176.855 239.525 156.545 228.638C119.164 258.512 93.7413 260.978 67.058 266.332C45.1354 261.055 24.3331 253.209 9.61241 231.419C13.0377 209.24 14.5309 186.67 24.4888 165.814C8.50429 152.385 3.30001 135.415 0 117.821L50.8084 126.678C93.1103 89.5937 105.259 91.2498 125.19 82.907C188.548 69.0956 241.683 70.5336 286.312 84.6579C319.772 36.0431 342.735 7.82383 355.201 0Z" sodipodi:nodetypes="cccccccccccccccc"/>
</svg>
