<?xml version="1.0" standalone="no"?>
<!DOCTYPE svg PUBLIC "-//W3C//DTD SVG 20010904//EN" "http://www.w3.org/TR/2001/REC-SVG-20010904/DTD/svg10.dtd">
<!-- Created using Krita: https://krita.org -->
<svg xmlns="http://www.w3.org/2000/svg" 
    xmlns:xlink="http://www.w3.org/1999/xlink"
    xmlns:krita="http://krita.org/namespaces/svg/krita"
    xmlns:sodipodi="http://sodipodi.sourceforge.net/DTD/sodipodi-0.dtd"
    width="676.8pt"
    height="521.28pt"
    viewBox="0 0 676.8 521.28">
<defs/>
<g id="group0" transform="translate(0.859230964843107, 1.48000487975975)" fill="none">
  <path id="shape0" transform="translate(-4.35474317272977e-07, -8.83320821820632e-07)" fill="#c1cacf" fill-rule="evenodd" stroke="#3c5c70" stroke-width="2.22999999999982" stroke-linecap="square" stroke-linejoin="bevel" d="M257.007 470.377C257.007 470.377 275.133 520.099 240.123 517.752C205.113 515.406 130.871 494.4 86.1776 468.366C41.4838 442.332 8.21181 426.577 0.514551 342.553C-7.18271 258.528 73.6761 141.537 96.1096 122.212C118.543 102.888 183.988 14.1395 336.214 2.20969C488.441 -9.72013 542.799 29.9198 564.401 43.2162C586.003 56.5126 666.7 146.571 672.908 238.528C679.115 330.485 553.503 389.604 534.605 389.593C531.09 400.844 524.457 438.439 459.867 457.639C404.889 473.791 355.478 472.302 311.633 453.17C324.061 484.602 307.543 512.061 285.575 501.998C274.971 496.355 265.448 485.814 257.007 470.377Z" sodipodi:nodetypes="czzzzzzzccccc"/>
  <path id="shape1" transform="translate(359.80282813545, 371.94288532081)" fill="none" stroke="#3c5c70" stroke-width="2.22999999999982" stroke-linecap="square" stroke-linejoin="miter" stroke-miterlimit="2" d="M0 10.7321C21.6891 81.3808 153.006 -44.1701 174.802 17.7713" sodipodi:nodetypes="cc"/>
  <path id="shape2" transform="translate(284.731138840315, 322.003179252394)" fill="none" stroke="#3c5c70" stroke-width="2.22999999999982" stroke-linecap="square" stroke-linejoin="miter" stroke-miterlimit="2" d="M17.2181 118.662C-12.6515 97.2097 -12.8474 20.7863 92.2043 0" sodipodi:nodetypes="cc"/>
  <path id="shape3" transform="translate(387.115689531506, 242.895200699866)" fill="none" stroke="#3c5c70" stroke-width="2.22999999999982" stroke-linecap="square" stroke-linejoin="miter" stroke-miterlimit="2" d="M0 77.5437C80.1259 56.2979 204.924 92.2497 228.435 0" sodipodi:nodetypes="cc"/>
  <path id="shape4" transform="translate(353.526851321753, 84.8342639960461)" fill="none" stroke="#3c5c70" stroke-width="2.22999999999982" stroke-linecap="square" stroke-linejoin="miter" stroke-miterlimit="2" d="M150.538 8.3368C1.20034 -41.0862 -31.5357 142.122 28.1263 219.403" sodipodi:nodetypes="cc"/>
  <path id="shape5" transform="translate(38.1492138870449, 131.129431454519)" fill="#c5d5de" fill-rule="evenodd" stroke="#3c5c70" stroke-width="2.22999999999982" stroke-linecap="square" stroke-linejoin="bevel" d="M117.304 297.193C155.142 306.607 174.629 307.823 211.409 306.466C233.016 297.289 245.177 275.055 258.337 256.521C278.639 233.129 290.779 201.725 290.865 177.748C268.63 113.999 255.107 118.897 247.727 103.529C247.523 81.6265 261.001 36.2855 240.154 0C208.883 12.5292 187.224 39.0709 174.454 69.7382C153.815 70.8482 136.472 71.7756 121.773 78.5282C112.467 50.5718 93.1588 25.6015 70.6362 8.35052C37.067 41.4548 29.7652 82.0565 31.1441 120.205C12.946 161.939 -1.38484 204.196 0.106746 248.588C29.6185 285.944 68.6842 302.145 117.304 297.193Z" sodipodi:nodetypes="cccccccccccc"/>
  <path id="shape6" transform="translate(84.77402681379, 148.47295241487)" fill="#ecc9c3" fill-rule="evenodd" stroke="#3c5c70" stroke-width="2.22999999999982" stroke-linecap="square" stroke-linejoin="bevel" d="M25.0144 0C9.49616 27.9318 -2.97922 61.7677 0.625933 95.9311C19.4762 82.9535 41.8201 70.6208 61.9607 67.1803C55.8709 44.8888 43.5555 22.4953 25.0144 0Z" sodipodi:nodetypes="cccc"/>
  <path id="shape7" transform="translate(231.493806910111, 141.59784366299)" fill="#ecc9c3" fill-rule="evenodd" stroke="#3c5c70" stroke-width="2.22999999999982" stroke-linecap="square" stroke-linejoin="bevel" d="M47.3113 0C29.5632 13.4075 11.1107 36.7254 0 62.6666C15.9781 66.5241 33.7605 75.618 44.5514 85.3112C53.4778 56.1977 54.3978 27.7607 47.3113 0Z" sodipodi:nodetypes="cccc"/>
  <path id="shape8" transform="translate(152.283787448562, 340.664237184871)" fill="none" stroke="#3c5c70" stroke-width="2.22999999999982" stroke-linecap="square" stroke-linejoin="miter" stroke-miterlimit="2" d="M59.8619 0C42.322 16.0052 12.8833 13.1732 0 2.05391" sodipodi:nodetypes="cc"/>
  <path id="shape9" transform="translate(157.194861633595, 333.987206083742)" fill="#fcfcfc" fill-rule="evenodd" stroke-opacity="0" stroke="#000000" stroke-width="0" stroke-linecap="square" stroke-linejoin="bevel" d="M0 93.0867C24.0452 57.7171 43.9575 23.26 82.2267 0C96.3169 4.67551 119.535 13.2948 137.156 54.4036C118.393 87.5626 107.004 95.3419 92.4727 102.408C69.3827 105.903 38.5584 102.796 0 93.0867Z" sodipodi:nodetypes="ccccc"/>
  <path id="shape10" transform="translate(265.687862590869, 308.749591889404)" fill="none" stroke="#3c5c70" stroke-width="2.22999999999982" stroke-linecap="square" stroke-linejoin="miter" stroke-miterlimit="2" d="M0 22.909C15.877 25.1776 36.2817 19.2043 41.0783 0" sodipodi:nodetypes="cc"/>
  <path id="shape11" transform="translate(151.406046928927, 316.64925656656)" fill="none" stroke="#3c5c70" stroke-width="2.22999999999982" stroke-linecap="square" stroke-linejoin="miter" stroke-miterlimit="2" d="M0 17.8532C2.52173 8.70841 7.05388 1.59912 17.0282 0" sodipodi:nodetypes="cc"/>
  <path id="shape12" transform="translate(289.358177628654, 295.319302011415)" fill="none" stroke="#3c5c70" stroke-width="2.22999999999982" stroke-linecap="square" stroke-linejoin="miter" stroke-miterlimit="2" d="M15.7993 8.68963C12.0615 2.55034 6.38949 0.514088 0 0" sodipodi:nodetypes="cc"/>
  <path id="shape13" transform="translate(442.0500631354, 373.013046452074)" fill="#fcfcfc" fill-rule="evenodd" stroke-opacity="0" stroke="#000000" stroke-width="0" stroke-linecap="square" stroke-linejoin="bevel" d="M92.2949 18.4562C75.9195 -19.5583 31.3778 11.6485 0 19.6279C13.2097 23.9312 30.9945 52.4404 17.9605 83.5431C60.9767 71.2329 85.7549 49.5373 92.2949 18.4562Z" sodipodi:nodetypes="cccc"/>
  <path id="shape14" transform="translate(129.261635479863, 429.314100787784)" fill="#fcfcfc" fill-rule="evenodd" stroke-opacity="0" stroke="#000000" stroke-width="0" stroke-linecap="square" stroke-linejoin="bevel" d="M7.24301 61.0515C-7.54749 40.1081 0.957152 6.92683 26.8902 0C87.0369 18.8344 117.061 29.8707 127.8 41.4334C136.456 73.8697 126.382 85.9587 114.779 87.6275C92.5644 88.3411 56.719 79.4824 7.24301 61.0515Z" sodipodi:nodetypes="ccccc"/>
  <path id="shape15" transform="translate(252.17803639628, 406.766361850883)" fill="#fcfcfc" fill-rule="evenodd" stroke-opacity="0" stroke="#000000" stroke-width="0" stroke-linecap="square" stroke-linejoin="bevel" d="M5.3485 63.3534C2.43501 53.3418 -1.14003 45.3162 0.349522 30.8135C13.0064 23.0438 23.1487 13.7655 32.0873 0C33.1257 25.3523 48.4988 33.8328 59.291 46.7696C68.8083 85.5979 53.8732 96.9148 44.9916 95.6317C35.2202 101.269 22.0058 90.5096 5.3485 63.3534Z" sodipodi:nodetypes="cccccc"/>
  <path id="shape16" transform="translate(234.966944402165, 358.825733296616)" fill="#de9c8c" fill-rule="evenodd" stroke="#3c5c70" stroke-width="2.22999999999982" stroke-linecap="square" stroke-linejoin="bevel" d="M0 8.53937C11.0517 -1.27834 24.6132 -2.38447 36.514 3.95757L20.5391 22.6798C20.8902 22.5744 14.0438 17.861 0 8.53937Z" sodipodi:nodetypes="cccc"/>
  <path id="shape17" transform="translate(230.121003833959, 386.822579670337)" fill="none" stroke="#3c5c70" stroke-width="2.22999999999982" stroke-linecap="square" stroke-linejoin="bevel" d="M0 30.9504C10.5516 26.9037 19.5916 19.6376 25.3265 0C28.3669 9.3349 34.9859 19.4696 45.7569 20.8809" sodipodi:nodetypes="ccc"/>
  <path id="shape18" transform="translate(155.68679198549, 429.941880062129)" fill="#888686" fill-rule="evenodd" stroke-opacity="0" stroke="#000000" stroke-width="0" stroke-linecap="square" stroke-linejoin="bevel" d="M101.375 40.8057C100.707 31.1076 94.694 25.0371 96.8408 7.63798C49.2896 11.5257 30.9417 6.04942 0 0C56.9925 16.1182 90.784 29.7201 101.375 40.8057Z" sodipodi:nodetypes="cccc"/>
 </g>
</svg>
