<?xml version="1.0" standalone="no"?>
<!DOCTYPE svg PUBLIC "-//W3C//DTD SVG 20010904//EN" "http://www.w3.org/TR/2001/REC-SVG-20010904/DTD/svg10.dtd">
<!-- Created using Krita: https://krita.org -->
<svg xmlns="http://www.w3.org/2000/svg" 
    xmlns:xlink="http://www.w3.org/1999/xlink"
    xmlns:krita="http://krita.org/namespaces/svg/krita"
    xmlns:sodipodi="http://sodipodi.sourceforge.net/DTD/sodipodi-0.dtd"
    width="714.96pt"
    height="507.6pt"
    viewBox="0 0 714.96 507.6">
<defs/>
<g id="group0" transform="matrix(0.999999969267294 0 0 0.999999969267294 0.843103985864902 2.01130035318721)" fill="none">
  <path id="shape0" transform="matrix(0.999999938534588 0 0 0.999999938534588 64.6018619345208 -4.44089209850063e-16)" fill="#fec28e" fill-rule="evenodd" stroke="#bd6340" stroke-width="2.92999999999977" stroke-linecap="square" stroke-linejoin="bevel" d="M129.55 505.093C103.998 511.489 84.9443 496.753 59.5048 462.403C29.895 425.471 5.32682 384.254 0 326.681C14.5832 248.52 41.9093 172.024 83.6467 107.415C153.029 53.5697 236.197 19.0822 334.247 0C416.682 9.17572 495.356 53.3319 548.464 106.65C588.238 146.044 626.683 189.455 647.752 285.368C647.754 339.706 624.948 356.898 606.948 381.919C556.737 417.537 498.701 436.256 434.895 442.511C401.638 444.478 377.895 446.875 328.126 441.593C318.769 464.151 292.773 483.95 266.581 503.716C244.138 508.495 235.131 496.479 228.838 481.07C236.885 443.328 260.963 417.526 254.68 392.935C240.525 369.495 222.039 349.747 190.755 340.911C134.95 350.408 124.011 376.73 116.289 404.258C124.009 431.316 134.11 453.732 144.512 475.562C146.41 485.895 141.423 495.739 129.55 505.093Z" sodipodi:nodetypes="ccccccccccccccccc"/>
  <path id="shape1" transform="matrix(0.999999938534588 0 0 0.999999938534588 396.328150616648 143.585389104667)" fill="none" stroke="#bd6340" stroke-width="1.44" stroke-linecap="square" stroke-linejoin="miter" stroke-miterlimit="2" d="M0 145.628C3.10086 107.104 14.5324 61.5712 34.0253 33.4582C63.8519 9.64849 139.798 28.4509 155.76 0" sodipodi:nodetypes="ccc"/>
  <path id="shape2" transform="matrix(0.999999938534588 0 0 0.999999938534588 347.432485183154 323.692824768498)" fill="none" stroke="#bd6340" stroke-width="2.16" stroke-linecap="square" stroke-linejoin="bevel" d="M35.5376 119.202C21.4855 124.676 10.7793 124.428 0 124.306C34.1348 81.3279 87.4605 27.9405 169.371 16.8993C221.488 20.6266 273.112 23.5277 320.594 19.5079C334.237 16.0066 341.976 9.84881 341.514 0" sodipodi:nodetypes="ccccc"/>
  <path id="shape3" transform="matrix(0.999999938534588 0 0 0.999999938534588 1.18930758563618e-06 180.238325424583)" fill="#fec28e" fill-rule="evenodd" stroke="#bd6340" stroke-width="2.92999999999977" stroke-linecap="square" stroke-linejoin="bevel" d="M83.0343 244.054C47.7542 248.777 26.8852 233.35 8.22833 214.829C1.03662 199.646 -10.6001 185.857 20.4693 158.674C118.776 89.1784 117.208 78.2361 134.378 56.3085C142.908 42.2229 150.585 27.7113 164.301 16.2193C194.157 3.43689 225.861 2.01219 257.468 0C275.469 2.79604 293.184 7.62414 308.812 27.2362C330.733 68.3191 360.161 105.517 406.06 134.192C421.669 141.158 436.588 144.4 451.624 148.269C475.874 175.798 458.161 200.453 446.863 217.124C429.324 234.456 409.228 236.368 388.719 235.792C370.358 214.26 356.497 190.126 346.555 163.723C352.893 184.006 354.609 204.375 346.555 224.928C326.341 246.027 295.527 267.531 262.909 278.176C215.744 276.016 162.624 261.344 120.437 233.956C114.257 219.225 116.332 207.899 117.037 196.009C117.264 196.417 105.929 212.432 83.0343 244.054Z" sodipodi:nodetypes="ccccccccccccccccc"/>
  <path id="shape4" transform="matrix(0.999999938534588 0 0 0.999999938534588 168.91048355592 310.179880479164)" fill="none" stroke="#bd6340" stroke-width="2.16" stroke-linecap="square" stroke-linejoin="bevel" d="M0 17.6235C1.2471 11.6421 11.1303 7.85798 18.7189 3.50722C27.8907 1.7582 37.0625 -1.63415 46.2342 10.5101L55.9323 24.4144C44.1091 49.7703 16.0001 65.0601 14.2841 89.4183C14.4316 103.476 20.4249 116.054 34.61 120.955C67.6614 126.572 93.0191 120.524 110.963 110.174C128.991 116.598 140.746 117.143 153.364 115.249C170.794 102.659 184.672 90.7152 178.849 65.7212C164.362 42.9237 128.187 38.8417 117.729 18.2234L124.495 4.9281C133.961 -1.41529 138.553 -0.219348 143.215 0.868452C150.442 2.95678 157.655 7.86448 159.537 12.8929" sodipodi:nodetypes="ccccccccccccc"/>
  <path id="shape5" transform="matrix(0.999999938534588 0 0 0.999999938534588 185.173704031315 344.614918973539)" fill="#ffffff" fill-rule="evenodd" stroke-opacity="0" stroke="#000000" stroke-width="0" stroke-linecap="square" stroke-linejoin="bevel" d="M163.925 41.7888C160.005 19.2273 126.521 -0.423332 83.1215 0.00693568C38.3865 0.39562 14.1915 20.3301 1.28351 45.4891C-6.26613 82.8204 20.838 89.0106 47.2743 87.2856C71.129 85.3302 76.2445 83.0179 90.4923 75.3672C117.248 82.0088 127.651 83.3587 138.873 76.8301C150.096 70.3016 162.138 55.8946 163.925 41.7888Z" sodipodi:nodetypes="ccccccc"/>
  <path id="shape6" transform="matrix(0.999999938534588 0 0 0.999999938534588 116.49246563675 308.773946503975)" fill="none" stroke="#bd6340" stroke-width="1.44" stroke-linecap="square" stroke-linejoin="miter" stroke-miterlimit="2" d="M36.4133 0C20.1292 24.0049 15.68 46.0754 0 67.6798" sodipodi:nodetypes="cc"/>
  <path id="shape7" transform="matrix(0.999999938534588 0 0 0.999999938534588 158.545349338048 324.068726696138)" fill="none" stroke="#bd6340" stroke-width="2.92999999999977" stroke-linecap="square" stroke-linejoin="miter" stroke-miterlimit="2" d="M49.2467 8.75867C30.4825 11.5673 20.3033 9.51884 0 0" sodipodi:nodetypes="cc"/>
  <path id="shape8" transform="matrix(0.999999938534588 0 0 0.999999938534588 303.069895604469 321.209540121041)" fill="none" stroke="#bd6340" stroke-width="2.92999999999977" stroke-linecap="square" stroke-linejoin="miter" stroke-miterlimit="2" d="M0 9.13063C15.9539 11.1813 21.5046 6.5389 31.301 0" sodipodi:nodetypes="cc"/>
  <ellipse id="shape9" transform="matrix(0.950690234249165 0.310141831380633 -0.310141831380633 0.950690234249165 189.279904740809 277.556389037399)" rx="23.4999999999981" ry="10.4999999999992" cx="23.4999999999981" cy="10.4999999999992" fill="#ffffff" fill-rule="evenodd" stroke-opacity="0" stroke="#000000" stroke-width="0" stroke-linecap="square" stroke-linejoin="bevel"/>
  <ellipse id="shape01" transform="matrix(0.933395714004966 -0.358848620130625 0.358848620130625 0.933395714004966 276.465176364823 290.653352393132)" rx="21.1086295642779" ry="10.4999999999992" cx="21.1086295642779" cy="10.4999999999992" fill="#ffffff" fill-rule="evenodd" stroke-opacity="0" stroke="#000000" stroke-width="0" stroke-linecap="square" stroke-linejoin="bevel"/>
  <path id="shape10" transform="matrix(0.999999938534588 0 0 0.999999938534588 109.676809604216 419.011678954579)" fill="#ffffff" fill-rule="evenodd" stroke-opacity="0" stroke="#000000" stroke-width="0" stroke-linecap="square" stroke-linejoin="bevel" d="M84.8383 29.8862C90.0099 37.1249 94.708 46.9199 99.4366 56.5503C98.4744 67.5512 93.6636 77.4457 84.4754 86.0816C71.1224 87.5628 57.8011 84.565 46.1041 76.663C27.8274 60.5872 14.0999 41.078 0 21.9037C2.81153 11.7434 9.34238 2.37689 19.7099 0C21.7409 5.39693 43.4504 15.359 84.8383 29.8862Z" sodipodi:nodetypes="ccccccc"/>
  <path id="shape11" transform="matrix(0.999999938534588 0 0 0.999999938534588 260.803301710245 354.462710613604)" fill="#a2402b" fill-rule="evenodd" stroke="#eccfcc" stroke-width="2.92999999999977" stroke-linecap="square" stroke-linejoin="bevel" d="M0 11.0546C4.69125 4.93291 11.5306 0.744562 22.1964 0C30.41 0.515184 35.6886 4.63226 40.2778 9.59559C31.7319 13.9348 32.3484 24.2509 24.441 31.9853L14.8392 24.8026L19.8271 14.9265L8.72893 18.5739C8.72893 18.6113 5.81929 16.1049 0 11.0546Z" sodipodi:nodetypes="cccccccc"/>
  <path id="shape12" transform="matrix(0.999999938534588 0 0 0.999999938534588 295.132591838059 398.899017844854)" fill="#ffffff" fill-rule="evenodd" stroke-opacity="0" stroke="#000000" stroke-width="0" stroke-linecap="square" stroke-linejoin="bevel" d="M0 84.1541C7.10265 96.9146 12.7858 107.953 35.3208 102.834C65.0907 81.6391 87.4749 60.9552 97.5955 42.6942C82.6244 49.302 67.526 51.4415 52.2999 49.0997C58.3491 39.6742 64.8523 31.5142 82.7458 12.4778C75.4096 4.91798 68.6061 0.316246 54.7306 0C53.0703 11.7256 22.752 30.5641 18.3013 35.8413C7.47516 54.2623 1.37472 70.3665 0 84.1541Z" sodipodi:nodetypes="cccccccc"/>
  <path id="shape13" transform="matrix(0.999999938534588 0 0 0.999999938534588 331.867450857232 292.805644870264)" fill="none" stroke="#bd6340" stroke-width="1.44" stroke-linecap="square" stroke-linejoin="miter" stroke-miterlimit="2" d="M0 0C8.95163 21.9874 10.8033 32.999 14.2355 50.7393" sodipodi:nodetypes="cc"/>
  <path id="shape14" transform="matrix(0.999999938534588 0 0 0.999999938534588 259.673405858159 420.817222017441)" fill="#f37258" fill-rule="evenodd" stroke="#ab4e34" stroke-width="2.92999999999977" stroke-linecap="square" stroke-linejoin="bevel" d="M19.3871 0L0 8.69527L5.54217 23.1271L16.9221 27.45L28.0803 20.8991L32.3663 4.40563C32.2185 4.44997 27.8921 2.98142 19.3871 0Z" sodipodi:nodetypes="ccccccc"/>
 </g><path id="shape0" transform="translate(2.02378767871383, 2.01130035318721)" fill="none" stroke-opacity="0.776470588235294" stroke="#ffffff" stroke-width="21.6" stroke-linecap="square" stroke-linejoin="bevel" d="M147.068 107.415C107.492 170.479 82.5777 235.502 69.4229 302.096C33.004 332.068 -19.0284 351.363 7.04765 395.067C27.5663 416.907 51.8465 428.443 81.8536 424.292L90.3284 413.592C108.942 448.014 131.206 475.395 154.6 495.675C179.45 509.597 201.075 514.113 207.933 475.562L193.334 448.898C216.986 453.376 240.129 457.076 261.728 458.414C280.631 453.305 296.086 443.543 312.253 434.74C305.954 443.49 299.757 450.388 292.259 481.07C300.096 502.283 313.949 506.168 330.002 503.716C351.847 484.543 378.338 470.735 391.547 441.593C480.582 445.433 569.277 451.33 670.369 381.919C691.809 357.639 711.644 331.741 711.173 285.368C682.263 112.622 501.435 5.89756 397.668 0C295.424 19.7169 211.89 55.5219 147.068 107.415Z" sodipodi:nodetypes="ccccccccccccccccc"/>
</svg>
