<?xml version="1.0" standalone="no"?>
<!DOCTYPE svg PUBLIC "-//W3C//DTD SVG 20010904//EN" "http://www.w3.org/TR/2001/REC-SVG-20010904/DTD/svg10.dtd">
<!-- Created using Krita: https://krita.org -->
<svg xmlns="http://www.w3.org/2000/svg" 
    xmlns:xlink="http://www.w3.org/1999/xlink"
    xmlns:krita="http://krita.org/namespaces/svg/krita"
    xmlns:sodipodi="http://sodipodi.sourceforge.net/DTD/sodipodi-0.dtd"
    width="384.48pt"
    height="218.16pt"
    viewBox="0 0 384.48 218.16">
<defs/>
<path id="shape0" transform="matrix(0.99999991427647 0 0 0.99999991427647 -4.440891844708e-16 -1.1294243601294)" fill="#d5d5d5" fill-rule="evenodd" stroke="#b2b2b2" stroke-width="2.92999999999977" stroke-linecap="square" stroke-linejoin="bevel" d="M0 118.18C23.6471 112.049 33.7906 85.3004 39.4264 74.9629C45.0623 64.6253 80.0274 54.7695 102.691 51.5817C124.923 27.2417 140.043 21.9478 156.006 18.4664C188.938 14.5221 231.94 16.9202 284.111 34.4158C289.768 38.3224 313.147 51.896 318.353 59.4888C336.041 53.9809 336.026 54.9291 351.694 42.323C366.11 29.1741 370.235 9.33463 378.101 0C384.406 12.4662 382.621 46.8244 368.214 65.5712C359.802 71.4174 340.318 77.23 325.562 74.1542C336.006 79.8274 341.094 92.0223 344.785 105.918C345.996 130.725 357.637 155.357 369.415 179.988C364.108 182.74 361.099 188.413 349.441 183.097C332.259 166.28 313.165 158.927 294.024 151.806C270.017 165.539 243.765 165.993 216.98 163.295C216.462 181.427 236.446 207.512 214.577 217.361C195.861 210.472 167.982 181.665 153.302 156.469C149.56 162.021 140.046 167.076 127.621 166.945C120.123 164.583 115.849 160.045 113.954 153.901C105.396 160.896 97.771 165.551 79.6701 168.922C59.4842 169.177 38.0115 167.931 13.0922 153.098C7.11377 147.049 1.43055 132.406 0 118.18Z" sodipodi:nodetypes="czcccccccccccccccccccc"/><g id="group0" transform="translate(6.37296854189376, 3.78733466673412)" fill="none">
  <path id="shape1" transform="matrix(0.99999991427647 0 0 0.99999991427647 86.418776466275 91.9726624323816)" fill="none" stroke="#b2b2b2" stroke-width="1.44" stroke-linecap="square" stroke-linejoin="miter" stroke-miterlimit="2" d="M0 0C14.3592 12.1186 15.7831 36.3774 21.7765 56.3475" sodipodi:nodetypes="cc"/>
  <path id="shape2" transform="matrix(0.99999991427647 0 0 0.99999991427647 106.168930691842 84.0526628850018)" fill="none" stroke="#b2b2b2" stroke-width="1.44" stroke-linecap="square" stroke-linejoin="bevel" d="M0 0C9.59494 1.47226 18.2482 7.2008 26.2618 15.8208C40.1831 38.6512 40.9604 56.6798 40.8024 66.516" sodipodi:nodetypes="ccc"/>
  <path id="shape4" transform="matrix(0.99999991427647 0 0 0.99999991427647 15.819702500172 89.4445154615141)" fill="none" stroke="#000000" stroke-width="1.44" stroke-linecap="square" stroke-linejoin="bevel" d="M2.40292 0L12.1648 11.6917L0 9.39393" sodipodi:nodetypes="ccc"/>
  <path id="shape5" transform="matrix(0.99999991427647 0 0 0.99999991427647 9.04731359270031 115.86742610361)" fill="#595959" fill-rule="evenodd" stroke="#4c4c4c" stroke-width="1.44" stroke-linecap="square" stroke-linejoin="bevel" d="M0 1.5663C6.29674 -1.17599 12.3454 0.204657 18.3836 1.75757C14.2836 5.11534 10.3398 8.41296 5.41944 12.0864C5.41589 12.1201 0.115871 10.3883 0 1.5663Z" sodipodi:nodetypes="cccc"/>
  <path id="shape01" transform="matrix(0.999999942850979 0 0 0.999999942850979 8.88178419700125e-16 133.955938635834)" fill="#f2f2f2" fill-rule="evenodd" stroke-opacity="0" stroke="#000000" stroke-width="0" stroke-linecap="square" stroke-linejoin="bevel" d="M106.153 15.1323L104.765 2.76039C96.8002 16.3516 77.8568 17.9393 67.2739 11.2999C63.2554 9.43502 60.5278 5.82734 58.4797 1.30242C37.9678 9.65933 19.2856 11.7448 10.3436 4.67658C-0.290356 -0.111374 -5.85636 -5.94538 9.3253 13.841C50.7504 33.8601 83.0263 34.2906 106.153 15.1323Z" sodipodi:nodetypes="ccccccc"/>
  <path id="shape6" transform="matrix(0.999999867200471 0 0 0.999999867200471 41.1205905817524 137.14812365966)" fill="#fd8d8d" fill-rule="evenodd" stroke="#f17777" stroke-width="1.44" stroke-linecap="square" stroke-linejoin="bevel" d="M0.00162161 4.40161L7.92162 2.96161L14.4748 0C14.4547 10.4876 18.5346 21.287 12.3148 20.16C7.50401 21.3589 -0.127671 17.5101 0.00162161 4.40161Z" sodipodi:nodetypes="ccccc"/>
  <path id="shape11" transform="matrix(0.999999942850979 0 0 0.999999942850979 12.3470303882766 135.461600475549)" fill="none" stroke="#b2b2b2" stroke-width="1.44" stroke-linecap="square" stroke-linejoin="miter" stroke-miterlimit="2" d="M0 2.88C6.86008 9.00146 30.6832 7.31257 46.08 0" sodipodi:nodetypes="cc"/>
  <path id="shape21" transform="matrix(0.999999942850979 0 0 0.999999942850979 58.8510306128131 126.532660457312)" fill="none" stroke="#b2b2b2" stroke-width="1.44" stroke-linecap="square" stroke-linejoin="miter" stroke-miterlimit="2" d="M0.295997 0C-1.01828 6.88862 2.11917 16.5665 8.216 18" sodipodi:nodetypes="cc"/>
  <path id="shape3" transform="matrix(0.999999942850979 0 0 0.999999942850979 208.71383568516 120.809737880257)" fill="#ffffff" fill-rule="evenodd" stroke="#e6e6e6" stroke-width="1.44" stroke-linecap="square" stroke-linejoin="bevel" d="M5.09245 18.8062C13.3218 12.5012 50.2422 -5.70292 79.6524 1.77127C99.2593 6.75407 119.763 20.543 126.929 31.8016C131.706 39.3074 133.894 46.5044 133.493 53.3926C119.085 42.6286 102.64 32.9434 80.3557 24.5226C50.4182 41.1023 26.7181 38.1718 1.93231 36.0671C-1.44717 28.7631 -0.393787 23.0095 5.09245 18.8062Z" sodipodi:nodetypes="czzcccc"/>
  <path id="shape41" transform="matrix(0.999999942850979 0 0 0.999999942850979 321.29051614102 4.44089209850063e-16)" fill="#f2f2f2" fill-rule="evenodd" stroke="#f2f2f2" stroke-width="1.44" stroke-linecap="square" stroke-linejoin="bevel" d="M0 67.6671C15.3387 60.086 45.9209 61.8129 51.5402 0C53.6154 6.61196 56.5746 31.4113 38.6932 60.2172C23.2644 65.8101 10.3666 68.2934 0 67.6671Z" sodipodi:nodetypes="cccc"/>
  <ellipse id="shape51" transform="matrix(0.7791039476139 -0.62689466779867 0.62689466779867 0.7791039476139 21.9785600262281 87.2258474390716)" rx="3.33197372518001" ry="6.92865111314871" cx="3.33197372518001" cy="6.92865111314871" fill="#f2f2f2" fill-rule="evenodd" stroke-opacity="0" stroke="#000000" stroke-width="0" stroke-linecap="square" stroke-linejoin="bevel"/>
  <ellipse id="shape011" transform="matrix(-0.428305321118026 -0.903633996763994 0.903633996763994 -0.428305321118026 47.6191162364998 99.8990342577646)" rx="3.66829944467392" ry="9.41791449094164" cx="3.66829944467392" cy="9.41791449094164" fill="#f2f2f2" fill-rule="evenodd" stroke-opacity="0" stroke="#000000" stroke-width="0" stroke-linecap="square" stroke-linejoin="bevel"/>
  <path id="shape61" transform="matrix(0.999999942850979 0 0 0.999999942850979 104.163600658685 120.858612020093)" fill="#737373" fill-rule="evenodd" stroke="#808080" stroke-width="1.44" stroke-linecap="square" stroke-linejoin="bevel" d="M0 6.01311C5.56672 10.4847 9.36873 11.8427 25.7091 11.6394C38.3212 8.14615 34.9596 6.63589 37.1961 0C41.4348 14.6125 42.5127 25.2427 40.2437 32.0699C26.5679 43.3059 8.42225 42.2359 5.00115 27.7447C5.17123 28.0206 3.50418 20.7767 0 6.01311Z" sodipodi:nodetypes="cccccc"/>
  <path id="shape7" transform="matrix(0.999999942850979 0 0 0.999999942850979 295.238750211869 77.374623828075)" fill="#666666" fill-rule="evenodd" stroke="#737373" stroke-width="1.44" stroke-linecap="square" stroke-linejoin="bevel" d="M10.8483 5.90976C3.23809 2.27127 -1.15875 7.41927 0.266753 13.5972C1.69226 19.7752 13.0676 24.3419 18.3419 24.6324C23.6162 24.9228 24.2319 22.6646 26.0194 17.2881C31.2839 0.575007 12.4143 -5.63888 10.8483 5.90976Z" sodipodi:nodetypes="czzcc"/>
  <path id="shape31" transform="matrix(0.999999888962758 0 0 0.999999888962758 51.815931371296 97.8082335914312)" fill="none" stroke="#000000" stroke-width="1.44" stroke-linecap="square" stroke-linejoin="bevel" d="M21.9267 0L0 6.28515L18.1721 9.32635" sodipodi:nodetypes="ccc"/>
 </g><path id="shape02" transform="matrix(0.999999889018941 0 0 0.999999889018941 -0.0532783317149867 -1.20828467172443)" fill="none" stroke-opacity="0.72156862745098" stroke="#ffffff" stroke-width="21.6" stroke-linecap="square" stroke-linejoin="bevel" d="M0 118.18C23.6471 112.049 33.7906 85.3004 39.4264 74.9629C45.0623 64.6253 80.0274 54.7695 102.691 51.5817C124.923 27.2417 140.043 21.9478 156.006 18.4664C188.938 14.5221 231.94 16.9202 284.111 34.4158C289.768 38.3224 313.147 51.896 318.353 59.4888C336.041 53.9809 336.026 54.9291 351.694 42.323C366.11 29.1741 370.235 9.33463 378.101 0C384.406 12.4662 382.621 46.8244 368.214 65.5712C359.802 71.4174 340.318 77.23 325.562 74.1542C336.006 79.8274 341.094 92.0223 344.785 105.918C345.996 130.725 357.637 155.357 369.415 179.988C364.108 182.74 361.099 188.413 349.441 183.097C332.259 166.28 313.165 158.927 294.024 151.806C270.017 165.539 243.765 165.993 216.98 163.295C216.462 181.427 236.446 207.512 214.577 217.361C195.861 210.472 167.982 181.665 153.302 156.469C149.56 162.021 140.046 167.076 127.621 166.945C120.123 164.583 115.849 160.045 113.954 153.901C105.396 160.896 97.771 165.551 79.6701 168.922C59.4842 169.177 38.0115 167.931 13.0922 153.098C7.11377 147.049 1.43055 132.406 0 118.18Z" sodipodi:nodetypes="czcccccccccccccccccccc"/>
</svg>
