<?xml version="1.0" standalone="no"?>
<!DOCTYPE svg PUBLIC "-//W3C//DTD SVG 20010904//EN" "http://www.w3.org/TR/2001/REC-SVG-20010904/DTD/svg10.dtd">
<!-- Created using Krita: https://krita.org -->
<svg xmlns="http://www.w3.org/2000/svg" 
    xmlns:xlink="http://www.w3.org/1999/xlink"
    xmlns:krita="http://krita.org/namespaces/svg/krita"
    xmlns:sodipodi="http://sodipodi.sourceforge.net/DTD/sodipodi-0.dtd"
    width="168pt"
    height="38.4pt"
    viewBox="0 0 168 38.4">
<defs/>
<g id="group0" transform="translate(3.33785997960745e-06, 0)" fill="none">
  <rect id="shape0" transform="matrix(0.999999960263572 0 0 0.999999960263572 0 7.6293942186112e-07)" fill="#f1e2c5" fill-rule="evenodd" stroke-opacity="0" stroke="#000000" stroke-width="0" stroke-linecap="square" stroke-linejoin="bevel" width="168" height="38.4"/>
  <path id="shape1" transform="matrix(0.999999960263572 0 0 0.999999960263572 4.85167343176581e-16 9.80711553031553)" fill="none" stroke="#dfb9a9" stroke-width="0.48" stroke-linecap="square" stroke-linejoin="miter" stroke-miterlimit="2" d="M0 3.90799e-14L168.548 0" sodipodi:nodetypes="cc"/>
  <path id="shape2" transform="matrix(0.999999960263572 0 0 0.999999960263572 4.85167343176581e-16 19.4697672343697)" fill="none" stroke="#dfb9a9" stroke-width="0.48" stroke-linecap="square" stroke-linejoin="miter" stroke-miterlimit="2" d="M0 3.90799e-14L168.217 0" sodipodi:nodetypes="cc"/>
  <path id="shape3" transform="matrix(0.999999960263572 0 0 0.999999960263572 4.85167343176581e-16 28.8495034606024)" fill="none" stroke="#dfb9a9" stroke-width="0.48" stroke-linecap="square" stroke-linejoin="miter" stroke-miterlimit="2" d="M0 4.26326e-14L167.88 0" sodipodi:nodetypes="cc"/>
  <path id="shape4" transform="matrix(0.999999960263572 0 0 0.999999960263572 163.393160849987 28.7999988555909)" fill="none" stroke="#dfb9a9" stroke-width="0.48" stroke-linecap="square" stroke-linejoin="miter" stroke-miterlimit="2" d="M0 9.6L12.5953 0" sodipodi:nodetypes="cc"/>
  <path id="shape5" transform="matrix(0.999999960263572 0 0 0.999999960263572 153.599993896485 19.3557740254874)" fill="none" stroke="#dfb9a9" stroke-width="0.48" stroke-linecap="square" stroke-linejoin="miter" stroke-miterlimit="2" d="M0 9.44423L14.4 0" sodipodi:nodetypes="cc"/>
  <g id="group0" transform="matrix(0.999999960263572 0 0 0.999999960263572 4.85167343176581e-16 0)" fill="none">
   <path id="shape6" transform="translate(9.51531981719637, 28.8)" fill="none" stroke="#dfb9a9" stroke-width="0.48" stroke-linecap="square" stroke-linejoin="miter" stroke-miterlimit="2" d="M0 9.6L14.4847 0" sodipodi:nodetypes="cc"/>
   <path id="shape7" transform="translate(48.2530159868244, 28.8)" fill="none" stroke="#dfb9a9" stroke-width="0.48" stroke-linecap="square" stroke-linejoin="miter" stroke-miterlimit="2" d="M0 9.6L14.147 0" sodipodi:nodetypes="cc"/>
   <path id="shape8" transform="translate(0, 19.2)" fill="none" stroke="#dfb9a9" stroke-width="0.48" stroke-linecap="square" stroke-linejoin="miter" stroke-miterlimit="2" d="M0 9.51202L14.4 0" sodipodi:nodetypes="cc"/>
   <path id="shape9" transform="translate(38.4, 19.2)" fill="none" stroke="#dfb9a9" stroke-width="0.48" stroke-linecap="square" stroke-linejoin="miter" stroke-miterlimit="2" d="M0 9.6L14.4 0" sodipodi:nodetypes="cc"/>
   <path id="shape10" transform="translate(28.8, 9.6)" fill="none" stroke="#dfb9a9" stroke-width="0.48" stroke-linecap="square" stroke-linejoin="miter" stroke-miterlimit="2" d="M0 9.6L14.4 0" sodipodi:nodetypes="cc"/>
   <path id="shape11" transform="translate(86.3166277276818, 28.8)" fill="none" stroke="#dfb9a9" stroke-width="0.48" stroke-linecap="square" stroke-linejoin="miter" stroke-miterlimit="2" d="M0 9.6L14.4834 0" sodipodi:nodetypes="cc"/>
   <path id="shape12" transform="translate(124.87938849192, 28.8)" fill="none" stroke="#dfb9a9" stroke-width="0.48" stroke-linecap="square" stroke-linejoin="miter" stroke-miterlimit="2" d="M0 9.6L14.3206 0" sodipodi:nodetypes="cc"/>
   <path id="shape13" transform="translate(76.8, 19.2)" fill="none" stroke="#dfb9a9" stroke-width="0.48" stroke-linecap="square" stroke-linejoin="miter" stroke-miterlimit="2" d="M0 9.6L14.4 0" sodipodi:nodetypes="cc"/>
   <path id="shape14" transform="translate(115.2, 19.2)" fill="none" stroke="#dfb9a9" stroke-width="0.48" stroke-linecap="square" stroke-linejoin="miter" stroke-miterlimit="2" d="M0 9.6L14.4 0" sodipodi:nodetypes="cc"/>
   <path id="shape15" transform="translate(144, 9.6)" fill="none" stroke="#dfb9a9" stroke-width="0.48" stroke-linecap="square" stroke-linejoin="miter" stroke-miterlimit="2" d="M0 9.6L14.4 0" sodipodi:nodetypes="cc"/>
   <path id="shape16" transform="translate(105.6, 9.6)" fill="none" stroke="#dfb9a9" stroke-width="0.48" stroke-linecap="square" stroke-linejoin="miter" stroke-miterlimit="2" d="M0 9.6L14.4 0" sodipodi:nodetypes="cc"/>
   <path id="shape17" transform="translate(67.2, 9.6)" fill="none" stroke="#dfb9a9" stroke-width="0.48" stroke-linecap="square" stroke-linejoin="miter" stroke-miterlimit="2" d="M0 9.6L14.4 0" sodipodi:nodetypes="cc"/>
   <path id="shape18" transform="translate(57.6, 0)" fill="none" stroke="#dfb9a9" stroke-width="0.48" stroke-linecap="square" stroke-linejoin="miter" stroke-miterlimit="2" d="M0 9.6L14.4 0" sodipodi:nodetypes="cc"/>
   <path id="shape19" transform="translate(96, 0)" fill="none" stroke="#dfb9a9" stroke-width="0.48" stroke-linecap="square" stroke-linejoin="miter" stroke-miterlimit="2" d="M0 9.6L14.4 0" sodipodi:nodetypes="cc"/>
   <path id="shape20" transform="translate(134.4, 0)" fill="none" stroke="#dfb9a9" stroke-width="0.48" stroke-linecap="square" stroke-linejoin="miter" stroke-miterlimit="2" d="M0 9.6L14.4 0" sodipodi:nodetypes="cc"/>
   <path id="shape21" transform="translate(19.2, 0)" fill="none" stroke="#dfb9a9" stroke-width="0.48" stroke-linecap="square" stroke-linejoin="miter" stroke-miterlimit="2" d="M0 9.6L14.4 0" sodipodi:nodetypes="cc"/>
  </g>
 </g>
</svg>
