<?xml version="1.0" standalone="no"?>
<!DOCTYPE svg PUBLIC "-//W3C//DTD SVG 20010904//EN" "http://www.w3.org/TR/2001/REC-SVG-20010904/DTD/svg10.dtd">
<!-- Created using Krita: https://krita.org -->
<svg xmlns="http://www.w3.org/2000/svg" 
    xmlns:xlink="http://www.w3.org/1999/xlink"
    xmlns:krita="http://krita.org/namespaces/svg/krita"
    xmlns:sodipodi="http://sodipodi.sourceforge.net/DTD/sodipodi-0.dtd"
    width="1185.12pt"
    height="538.56pt"
    viewBox="0 0 1185.12 538.56">
<defs/>
<g id="group0" transform="translate(0.75127679854153, 1.22328462103367)" fill="none">
  <path id="shape0" transform="matrix(1.0000000041201 0 0 1.0000000041201 1.82624828976337 166.190972846565)" fill="#6b6f72" fill-rule="evenodd" stroke-opacity="0" stroke="#000000" stroke-width="0" stroke-linecap="square" stroke-linejoin="bevel" d="M0 134.283L621.312 369.988L1157.23 0Z" sodipodi:nodetypes="cccc"/>
  <path id="shape1" transform="matrix(1.0000000041201 0 0 1.0000000041201 0 0)" fill="#aabbc7" fill-rule="evenodd" stroke="#ffffff" stroke-width="1.99999999999984" stroke-linecap="square" stroke-linejoin="bevel" d="M0 297.685L528.838 0C637.325 24.8688 588.058 -8.36933 681.235 33.095C711.798 13.2471 1061.77 141.975 1178.21 150.975L625.128 531.909C538.821 485.081 479.177 462.847 446.195 465.207C417.258 433.192 399.693 427.165 393.501 447.124C373.156 428.018 359.003 423.298 351.042 432.965C245.022 387.274 162.758 353.156 104.251 330.609C60.3389 319.012 25.5885 308.037 0 297.685Z" sodipodi:nodetypes="cccccccccc"/>
  <path id="shape2" transform="matrix(1.0000000041201 0 0 1.0000000041201 445.807325667463 463.842242918009)" fill="#aabbc7" fill-rule="evenodd" stroke-opacity="0" stroke="#000000" stroke-width="0" stroke-linecap="square" stroke-linejoin="bevel" d="M0.00892841 0.170593C0.00892841 0.691087 -0.0924514 0.216214 0.388024 0" sodipodi:nodetypes="cc"/>
  <path id="shape3" transform="matrix(1.0000000041201 0 0 1.0000000041201 381.384282972912 325.473481043407)" fill="#91a4b2" fill-rule="evenodd" stroke-opacity="0" stroke="#000000" stroke-width="0" stroke-linecap="square" stroke-linejoin="bevel" d="M22.7792 108.298L214.711 0C141.589 35.3256 74.1823 76.9686 0 112.135C3.25269 113.523 7.05894 115.608 11.4188 118.388C14.8644 112.533 18.6512 109.17 22.7792 108.298Z" sodipodi:nodetypes="ccccc"/>
  <path id="shape4" transform="matrix(1.0000000041201 0 0 1.0000000041201 341.232520445627 365.496700043724)" fill="#9daeba" fill-rule="evenodd" stroke-opacity="0" stroke="#000000" stroke-width="0" stroke-linecap="square" stroke-linejoin="bevel" d="M24.0662 61.212L154.562 0L0 62.7591L10.1646 66.5933C11.6594 62.4228 16.2933 60.629 24.0662 61.212Z" sodipodi:nodetypes="ccccc"/>
  <path id="shape5" transform="matrix(1.0000000041201 0 0 1.0000000041201 446.634706182261 369.853579714173)" fill="#97a9b7" fill-rule="evenodd" stroke-opacity="0" stroke="#000000" stroke-width="0" stroke-linecap="square" stroke-linejoin="bevel" d="M0 92.6924L125.189 0L33.4835 97.6028C27.9987 95.5984 16.8376 93.9616 0 92.6924Z" sodipodi:nodetypes="cccc"/>
  <path id="shape6" transform="matrix(1.0000000041201 0 0 1.0000000041201 524.256537073608 11.2618184865816)" fill="#9daeba" fill-rule="evenodd" stroke-opacity="0" stroke="#000000" stroke-width="0" stroke-linecap="square" stroke-linejoin="bevel" d="M95.5572 0.578045L0 53.5655L60.4039 0.316265C65.5323 -0.179624 77.2501 -0.0923648 95.5572 0.578045Z" sodipodi:nodetypes="cccc"/>
  <path id="shape7" transform="matrix(1.0000000041201 0 0 1.0000000041201 571.207073372031 33.1463790015134)" fill="#9daeba" fill-rule="evenodd" stroke="#9daeba" stroke-width="1.99999999999984" stroke-linecap="square" stroke-linejoin="bevel" d="M106.769 1.40678L0 108.441L142.258 0.969909C125.618 -0.455428 113.788 -0.309803 106.769 1.40678Z" sodipodi:nodetypes="cccc"/>
 </g><path id="shape11" transform="matrix(0.999999950821773 0 0 0.999999950821773 0.657432849135124 2.28640735085829)" fill="none" stroke-opacity="0.698039215686274" stroke="#ffffff" stroke-width="21.6" stroke-linecap="square" stroke-linejoin="bevel" d="M0 297.685L528.838 0C637.325 24.8688 588.058 -8.36933 681.235 33.095C711.798 13.2471 1061.77 141.975 1178.21 150.975L625.128 531.909C538.821 485.081 479.177 462.847 446.195 465.207C417.258 433.192 399.693 427.165 393.501 447.124C373.156 428.018 359.003 423.298 351.042 432.965C245.022 387.274 162.758 353.156 104.251 330.609C60.3389 319.012 25.5885 308.037 0 297.685Z" sodipodi:nodetypes="cccccccccc"/>
</svg>
