<?xml version="1.0" standalone="no"?>
<!DOCTYPE svg PUBLIC "-//W3C//DTD SVG 20010904//EN" "http://www.w3.org/TR/2001/REC-SVG-20010904/DTD/svg10.dtd">
<!-- Created using Krita: https://krita.org -->
<svg xmlns="http://www.w3.org/2000/svg" 
    xmlns:xlink="http://www.w3.org/1999/xlink"
    xmlns:krita="http://krita.org/namespaces/svg/krita"
    xmlns:sodipodi="http://sodipodi.sourceforge.net/DTD/sodipodi-0.dtd"
    width="48pt"
    height="48pt"
    viewBox="0 0 48 48">
<defs/>
<g id="group0" transform="translate(4.8, 4.76595838140535)" fill="none">
  <path id="shape0" transform="matrix(1.3433042643123 -0.29411959532441 0.30201035293269 1.23986887775356 29.736152801296 1.22965768029814)" fill="#ffffff" fill-rule="evenodd" stroke="#000000" stroke-width="0.48" stroke-linecap="square" stroke-linejoin="bevel" d="M4.18081 5.90259C4.18081 2.64268 3.29991 1.99606e-16 2.21328 0C1.12664 -1.99606e-16 1.12819 0.826477 0.278644 5.60729C-0.699292 10.4203 1.12664 11.8052 2.21328 11.8052C3.94489 11.4979 4.18081 9.16251 4.18081 5.90259Z" sodipodi:nodetypes="ccccc"/>
  <path id="shape0" transform="matrix(1.37740128402888 0 0 1.27366535423163 2.60848703511534 10.6998855810057)" fill="#ffffff" fill-rule="evenodd" stroke="#000000" stroke-width="0.48" stroke-linecap="square" stroke-linejoin="bevel" d="M24.3206 12.2093C24.2814 4.329 18.8227 0.00178982 12.2064 0C5.516 -4.12876e-16 0.0477452 4.02335 0.00976556 11.9046C-0.150394 17.2767 1.6646 21.0478 5.07587 21.7713C18.9445 21.9846 5.07977 13.1762 12.0455 12.9877C19.0014 13.1703 5.13791 21.7136 19.0152 21.7713C22.1034 21.726 24.2961 17.3403 24.3206 12.2093Z" sodipodi:nodetypes="ccccccc"/>
  <path id="shape01" transform="matrix(1.34699363405177 0.266146871581924 -0.287823674750396 1.24554778912659 3.39781296338971 0.0340416185946539)" fill="#ffffff" fill-rule="evenodd" stroke="#000000" stroke-width="0.48" stroke-linecap="square" stroke-linejoin="bevel" d="M4.04507 5.45867C3.22674 0.705612 3.05417 1.99606e-16 1.96753 0C0.880894 -1.99606e-16 1.3307e-16 2.64268 0 5.90259C-1.3307e-16 9.16251 0.880894 11.8052 1.96753 11.8052C3.05417 11.8052 5.07485 10.0188 4.04507 5.45867Z" sodipodi:nodetypes="ccccc"/>
  <ellipse id="shape1" transform="matrix(0.699620192361242 0.00390443275993373 -0.00335046328884501 0.815296203262693 8.35676587753623 17.7278206535934)" rx="1.8" ry="4.8" cx="1.8" cy="4.8" fill="#000000" fill-rule="evenodd" stroke="#000000" stroke-width="0.96" stroke-linecap="square" stroke-linejoin="bevel"/>
  <ellipse id="shape02" transform="matrix(0.699620183004004 0.00390443270771296 -0.00335046324403344 0.815296192358318 27.5567658941642 17.7278207060284)" rx="1.8" ry="4.8" cx="1.8" cy="4.8" fill="#000000" fill-rule="evenodd" stroke="#000000" stroke-width="0.96" stroke-linecap="square" stroke-linejoin="bevel"/>
 </g>
</svg>
